<svg width="20" height="20" viewBox="0 0 20 20" fill="none" xmlns="http://www.w3.org/2000/svg">
<path d="M15.4999 16.999C15.6249 16.9988 15.7454 17.0453 15.8377 17.1295C15.9301 17.2137 15.9875 17.3294 15.9988 17.4538C16.0101 17.5783 15.9744 17.7024 15.8987 17.8018C15.823 17.9013 15.7129 17.9687 15.5899 17.991L15.4999 17.999H4.49994C4.375 17.9992 4.25449 17.9527 4.16216 17.8685C4.06983 17.7843 4.01236 17.6686 4.00107 17.5442C3.98978 17.4197 4.02549 17.2956 4.10116 17.1962C4.17684 17.0967 4.287 17.0293 4.40994 17.007L4.49994 16.999H15.4999ZM9.99994 2C10.117 1.99996 10.2303 2.04097 10.3202 2.11589C10.4101 2.19081 10.4709 2.29489 10.4919 2.41L10.4999 2.5L10.4959 14.294L14.1409 10.646C14.2236 10.563 14.3327 10.5117 14.4493 10.5009C14.5658 10.4901 14.6825 10.5206 14.7789 10.587L14.8489 10.645C14.9318 10.7277 14.9829 10.8369 14.9935 10.9535C15.0041 11.0701 14.9735 11.1867 14.9069 11.283L14.8489 11.353L10.3569 15.853C10.2873 15.9226 10.1985 15.9699 10.1019 15.989L9.99594 15.999C9.91967 15.9989 9.84442 15.9814 9.77595 15.9478C9.70749 15.9142 9.64763 15.8653 9.60094 15.805L5.14394 11.353C5.05502 11.265 5.00232 11.1468 4.99627 11.0218C4.99021 10.8969 5.03124 10.7741 5.11124 10.6779C5.19125 10.5817 5.30442 10.519 5.4284 10.5022C5.55239 10.4854 5.67818 10.5156 5.78094 10.587L5.85094 10.645L9.49594 14.286L9.49994 2.501C9.49981 2.43525 9.51265 2.37013 9.53772 2.30935C9.56279 2.24857 9.59959 2.19334 9.64604 2.1468C9.69248 2.10026 9.74764 2.06335 9.80837 2.03816C9.8691 2.01297 9.9342 2 9.99994 2Z" fill="white"/>
</svg>
