<svg width="16" height="18" viewBox="0 0 16 18" fill="none" xmlns="http://www.w3.org/2000/svg">
<path d="M8.05201 1.29398C8.39201 0.316984 9.68401 -0.133016 10.482 0.703984C10.646 0.873984 10.808 1.05798 10.918 1.22298C11.238 1.70298 11.373 2.33598 11.422 2.95298C11.472 3.57998 11.438 4.25398 11.374 4.86498C11.309 5.47698 11.213 6.03898 11.133 6.44798L11.123 6.49998H12.006C12.4455 6.49992 12.8796 6.59641 13.2777 6.78264C13.6758 6.96887 14.0281 7.24029 14.3097 7.5777C14.5913 7.91511 14.7953 8.31027 14.9074 8.73524C15.0194 9.16021 15.0367 9.6046 14.958 10.037L14.274 13.798C14.1625 14.4117 13.9246 14.9956 13.5755 15.5125C13.2264 16.0294 12.7736 16.468 12.2458 16.8006C11.7181 17.1332 11.127 17.3525 10.5101 17.4445C9.89313 17.5365 9.26379 17.4992 8.66201 17.335L3.06201 15.808C2.61416 15.6857 2.20921 15.4411 1.89253 15.1016C1.57585 14.7622 1.35995 14.3412 1.26901 13.886L0.916009 12.121C0.638009 10.732 1.70001 9.56198 2.82901 9.11598C3.1351 9.00216 3.41926 8.8364 3.66901 8.62598C5.37601 7.11198 5.99401 5.90298 7.05401 3.77598C7.40801 3.06598 7.77201 2.09998 8.05201 1.29398V1.29398ZM10.017 6.87898V6.87698L10.019 6.86998L10.026 6.83898C10.0722 6.64526 10.1143 6.45054 10.152 6.25498C10.228 5.86698 10.319 5.33498 10.379 4.75998C10.44 4.18298 10.469 3.57598 10.425 3.03198C10.381 2.47598 10.265 2.04698 10.085 1.77698C9.98637 1.64111 9.87738 1.51306 9.75901 1.39398C9.56001 1.18598 9.13101 1.23398 8.99701 1.62198C8.71401 2.43598 8.33301 3.45198 7.94901 4.22198C6.88201 6.36298 6.19301 7.72398 4.33301 9.37398C3.99301 9.67598 3.58901 9.89098 3.19701 10.046C2.31701 10.394 1.75001 11.194 1.89701 11.925L2.24901 13.69C2.3037 13.9632 2.43344 14.2159 2.62367 14.4195C2.8139 14.6232 3.0571 14.7698 3.32601 14.843L8.92601 16.37C9.39393 16.4975 9.88326 16.5265 10.3629 16.4549C10.8426 16.3834 11.3022 16.2129 11.7125 15.9543C12.1229 15.6958 12.475 15.3547 12.7465 14.9529C13.0181 14.551 13.2032 14.0971 13.29 13.62L13.974 9.85798C14.0265 9.56973 14.0149 9.27346 13.9402 8.99015C13.8656 8.70684 13.7295 8.4434 13.5418 8.21846C13.3541 7.99352 13.1192 7.81258 12.8538 7.68842C12.5884 7.56427 12.299 7.49994 12.006 7.49998H10.501C10.4251 7.49981 10.3503 7.48238 10.2822 7.449C10.2141 7.41563 10.1544 7.36719 10.1078 7.30735C10.0611 7.24751 10.0287 7.17785 10.013 7.10363C9.99728 7.02942 9.99865 6.95259 10.017 6.87898V6.87898Z" fill="white"/>
</svg>
