<svg width="17" height="15" viewBox="0 0 17 15" fill="none" xmlns="http://www.w3.org/2000/svg">
<path d="M15.625 6.2513H3.27083L7.05209 1.70964C7.2289 1.49691 7.31396 1.22266 7.28857 0.947217C7.26317 0.671773 7.1294 0.417699 6.91667 0.240888C6.70394 0.0640768 6.42969 -0.0209877 6.15425 0.00440781C5.8788 0.0298034 5.62473 0.163579 5.44792 0.376305L0.239583 6.6263C0.204542 6.67602 0.173208 6.72824 0.145833 6.78256C0.145833 6.83464 0.145834 6.86589 0.0729169 6.91797C0.0257017 7.03741 0.000980335 7.16455 0 7.29297C0.000980335 7.4214 0.0257017 7.54854 0.0729169 7.66797C0.0729169 7.72005 0.0729166 7.7513 0.145833 7.80339C0.173208 7.8577 0.204542 7.90993 0.239583 7.95964L5.44792 14.2096C5.54586 14.3272 5.6685 14.4218 5.80713 14.4866C5.94576 14.5514 6.09697 14.5849 6.25 14.5846C6.49339 14.5851 6.72926 14.5003 6.91667 14.3451C7.02215 14.2576 7.10934 14.1502 7.17324 14.029C7.23715 13.9078 7.27652 13.7752 7.2891 13.6388C7.30168 13.5023 7.28722 13.3648 7.24655 13.2339C7.20588 13.1031 7.1398 12.9816 7.05209 12.8763L3.27083 8.33464H15.625C15.9013 8.33464 16.1662 8.22489 16.3616 8.02954C16.5569 7.83419 16.6667 7.56924 16.6667 7.29297C16.6667 7.0167 16.5569 6.75175 16.3616 6.5564C16.1662 6.36105 15.9013 6.2513 15.625 6.2513Z" fill="#F5F5F1"/>
</svg>
