<svg width="25" height="24" viewBox="0 0 25 24" fill="none" xmlns="http://www.w3.org/2000/svg">
<path d="M11.5 17.28C7.9 17.28 5 14.496 5 11.04C5 7.58399 7.9 4.79999 11.5 4.79999C15.1 4.79999 18 7.58399 18 11.04C18 14.496 15.1 17.28 11.5 17.28ZM11.5 5.75999C8.45 5.75999 6 8.11199 6 11.04C6 13.968 8.45 16.32 11.5 16.32C14.55 16.32 17 13.968 17 11.04C17 8.11199 14.55 5.75999 11.5 5.75999Z" fill="#F2F2F2"/>
<path d="M16.341 15.0081L20.831 19.3185L20.124 19.9972L15.634 15.6868L16.341 15.0081Z" fill="#F2F2F2"/>
</svg>
